<?xml version="1.0" encoding="UTF-8" standalone="no"?>
<!-- Created with Inkscape (http://www.inkscape.org/) -->

<svg
   xmlns:dc="http://purl.org/dc/elements/1.1/"
   xmlns:cc="http://creativecommons.org/ns#"
   xmlns:rdf="http://www.w3.org/1999/02/22-rdf-syntax-ns#"
   xmlns:svg="http://www.w3.org/2000/svg"
   xmlns="http://www.w3.org/2000/svg"
   xmlns:sodipodi="http://sodipodi.sourceforge.net/DTD/sodipodi-0.dtd"
   xmlns:inkscape="http://www.inkscape.org/namespaces/inkscape"
   version="1.1"
   id="svg815"
   width="1107.3284"
   height="323.57123"
   viewBox="0 0 1107.3284 323.57123"
   sodipodi:docname="WBEArror.svg"
   inkscape:version="0.92.3 (2405546, 2018-03-11)">
  <metadata
     id="metadata821">
    <rdf:RDF>
      <cc:Work
         rdf:about="">
        <dc:format>image/svg+xml</dc:format>
        <dc:type
           rdf:resource="http://purl.org/dc/dcmitype/StillImage" />
        <dc:title></dc:title>
      </cc:Work>
    </rdf:RDF>
  </metadata>
  <defs
     id="defs819" />
  <sodipodi:namedview
     pagecolor="#ffffff"
     bordercolor="#666666"
     borderopacity="1"
     objecttolerance="10"
     gridtolerance="10"
     guidetolerance="10"
     inkscape:pageopacity="0"
     inkscape:pageshadow="2"
     inkscape:window-width="1920"
     inkscape:window-height="1001"
     id="namedview817"
     showgrid="false"
     fit-margin-top="0"
     fit-margin-left="0"
     fit-margin-right="0"
     fit-margin-bottom="0"
     inkscape:zoom="0.954"
     inkscape:cx="548.76968"
     inkscape:cy="155.27614"
     inkscape:window-x="-9"
     inkscape:window-y="-9"
     inkscape:window-maximized="1"
     inkscape:current-layer="g825" />
  <g
     id="g825"
     transform="translate(-232.67686,-199.28981)">
    <path
       style="fill:#fdfdfd;stroke-width:1.33333325"
       d="M 33.542977,370.72954 V 110.06289 H 783.54298 1533.543 V 370.72954 631.3962 H 783.54298 33.542977 Z"
       id="path833"
       inkscape:connector-curvature="0" />
    <path
       style="fill:#d9d9d9;stroke-width:1.33333325"
       d="m 615.65347,521.87398 c -0.32084,-0.99611 -1.07696,-15.56348 -1.68025,-32.37192 l -1.09691,-30.56081 -25.66666,-8.5503 c -14.11667,-4.70266 -25.66667,-9.09551 -25.66667,-9.76189 0,-0.66638 4.213,-4.01305 9.36223,-7.43706 8.62828,-5.73742 9.69969,-6.11559 13.66666,-4.82384 2.36744,0.77089 12.3417,4.21957 22.165,7.66374 l 17.86058,6.26211 3.47276,-2.59279 c 1.91002,-1.42604 3.47277,-3.42036 3.47277,-4.43182 0,-1.15518 -6.69339,-4.22722 -18,-8.2614 -9.9,-3.53231 -18.51425,-6.93424 -19.14279,-7.55987 -1.34204,-1.33583 16.06738,-13.38525 19.33946,-13.38525 1.22382,0 10.73532,3 21.13666,6.66666 10.40135,3.66667 19.97552,6.66667 21.27595,6.66667 3.46504,0 9.87111,-5.38628 8.28841,-6.96897 -0.71086,-0.71087 -9.27676,-4.15296 -19.03532,-7.64911 -9.75856,-3.49615 -17.95934,-7.00619 -18.22398,-7.80009 -0.26464,-0.79391 3.74481,-4.25355 8.90988,-7.6881 l 9.39104,-6.24462 21.24574,7.50878 c 11.68516,4.12983 21.74882,7.48107 22.36368,7.4472 0.61487,-0.0339 14.61794,-9.19912 31.11794,-20.36722 29.88182,-20.22565 30.00289,-20.32715 30.73332,-25.76545 1.60077,-11.91818 10.27849,-18.07148 21.45666,-15.21474 l 6.18999,1.58195 78.47668,-52.92574 c 89.04633,-60.05407 87.76895,-59.15495 86.22899,-60.69491 -0.62696,-0.62696 -11.32772,-2.65285 -23.77946,-4.50196 -12.45173,-1.84912 -24.66722,-3.70867 -27.14552,-4.13233 l -4.506,-0.7703 0.88416,-7.52287 c 0.4863,-4.13758 1.48772,-7.8959 2.2254,-8.35181 0.73768,-0.45591 21.26751,2.52115 45.62184,6.61569 l 44.2806,7.44461 -0.25724,3.33333 c -0.35917,4.65426 -18.57377,85.27545 -19.4682,86.16988 -1.48021,1.48021 -15.60789,-2.33934 -15.60789,-4.21974 0,-1.02342 2.69973,-12.83089 5.99941,-26.23879 5.76963,-23.4443 6.79479,-29.04468 5.31668,-29.04468 -0.68766,0 -130.96413,87.5093 -133.15433,89.44242 -0.64497,0.56927 0.0909,2.63912 1.63732,4.60497 2.16231,2.74894 2.49792,4.15198 1.45799,6.0951 -1.39646,2.60929 -7.92374,3.59026 -7.92374,1.19084 0,-2.38415 -5.2009,-1.40547 -6.61976,1.24568 -2.09301,3.91084 -1.67134,15.07869 0.697,18.45998 2.95171,4.21415 1.39499,5.62767 -6.19777,5.62767 -6.89968,0 -9.88576,-2.52704 -6.72317,-5.68963 1.46281,-1.46281 2.20902,-15.6437 0.8232,-15.6437 -2.2021,0 -15.65358,10.3127 -19.18764,14.71038 -2.9498,3.67063 -6.03818,5.76035 -10.48652,7.09563 -3.81466,1.14505 -18.68238,10.24744 -37.63867,23.04333 l -31.33333,21.15065 -0.66667,25.98452 -0.66667,25.98452 -9.19021,6.30995 c -5.05461,3.47046 -9.70461,5.99202 -10.33333,5.60345 -0.62872,-0.38856 -1.14312,-10.83567 -1.14312,-23.21577 0,-12.38011 -0.52631,-22.83456 -1.16958,-23.23212 -0.64326,-0.39756 -3.19326,0.64381 -5.66666,2.31417 l -4.4971,3.03703 v 25.20116 25.20117 l -6.5323,4.95381 c -7.33539,5.56283 -12.53099,8.58178 -13.33596,7.749 -0.74951,-0.77537 -2.00602,-22.31028 -2.0747,-35.55756 -0.0621,-11.99562 -0.62672,-12.67477 -6.85121,-8.24254 l -3.87249,2.75746 -0.024,25.57587 -0.024,25.57588 -6.30939,4.10353 c -3.47016,2.25695 -7.95327,5.17196 -9.96245,6.47779 -2.92294,1.89969 -3.76968,2.01224 -4.23643,0.56312 z M 769.21793,343.72955 c 0.795,-2.42111 -4.35215,-2.06383 -6.43572,0.44673 -1.54031,1.85595 -1.28848,2.05897 2.06724,1.66667 2.10166,-0.24571 4.06749,-1.19674 4.36848,-2.1134 z m 65.65838,42.33333 c -1.46666,-1.46667 -2.66666,-3.7932 -2.66666,-5.17008 0,-5.9046 9.60788,-7.59094 10.42606,-1.82992 0.23434,1.65 1.17975,3 2.10092,3 1.90842,0 6.4462,-4.65094 8.57192,-8.78566 1.17327,-2.28209 0.36776,-5.14903 -4.45609,-15.85994 -3.23853,-7.19087 -7.12132,-14.22309 -8.62843,-15.62716 -3.98337,-3.71108 -2.20942,-5.06057 6.65228,-5.06057 8.49172,0 10.29414,1.16436 7.85311,5.07306 -1.28725,2.06123 -0.9058,3.93504 2.11457,10.38758 l 3.68514,7.87269 3.2697,-7.27863 c 2.34291,-5.21548 3.03638,-8.52241 2.44652,-11.66666 l -0.82321,-4.38804 h 6.72709 c 5.69196,0 6.72708,0.38521 6.72708,2.50341 0,1.37687 -0.90318,3.25297 -2.00708,4.16913 -1.10389,0.91615 -5.75389,8.92923 -10.33333,17.80684 -10.15685,19.68987 -17.01363,27.52061 -24.09769,27.52061 -3.11746,0 -5.86367,-0.96844 -7.5619,-2.66666 z m -591.4141,-28.30947 c -3.31972,-6.7702 -7.27247,-13.62578 -8.7839,-15.23462 -1.51142,-1.60884 -2.34977,-3.56959 -1.863,-4.3572 0.89888,-1.45443 15.66412,-2.05115 17.02714,-0.68814 0.40916,0.40916 0.15536,2.35916 -0.56398,4.33334 -0.97333,2.67128 -0.76114,4.8684 0.82954,8.58942 1.17558,2.75 2.61825,5 3.20592,5 0.58766,0 2.10306,-2.16953 3.36754,-4.82117 2.10747,-4.41941 2.12343,-5.08921 0.19154,-8.03767 -2.98171,-4.55066 -1.53794,-5.80782 6.66997,-5.80782 7.89868,0 9.58895,1.22604 7.12643,5.16916 -1.33219,2.13318 -1.1814,3.60704 0.824,8.05424 1.35001,2.9938 2.99406,5.44326 3.65344,5.44326 0.65937,0 2.1411,-2.25 3.29273,-5 1.57427,-3.75925 1.7588,-5.8907 0.74361,-8.58942 -1.71569,-4.56084 -1.12204,-5.07724 5.83666,-5.07724 6.8511,0 8.39648,1.85476 4.80364,5.76537 -1.46604,1.59571 -5.43492,8.45129 -8.81974,15.23463 -3.85544,7.72649 -6.93824,12.33333 -8.25322,12.33333 -1.28371,0 -3.47239,-3.10737 -5.6348,-8 -1.94468,-4.4 -3.98546,-8 -4.53507,-8 -0.54961,0 -2.81657,3.6 -5.03768,8 -2.23935,4.43612 -4.93081,8 -6.04165,8 -1.20163,0 -4.41864,-4.92588 -8.03912,-12.30947 z m 67.20122,8.50767 c -3.68286,-3.29064 -4.33065,-4.85924 -4.81796,-11.66667 -0.47737,-6.66881 -0.1036,-8.44705 2.45779,-11.6931 3.96177,-5.02075 10.82093,-7.82956 16.51249,-6.76182 5.61684,1.05372 11.41662,6.98715 11.78167,12.05318 l 0.27889,3.87021 -9.99844,0.39844 c -5.49914,0.21915 -10.53833,0.93833 -11.19821,1.59821 -1.75292,1.75292 2.65481,7.81655 6.35748,8.74586 1.71991,0.43168 5.26339,-0.10774 7.87439,-1.19868 2.61101,-1.09095 5.09622,-1.63462 5.5227,-1.20814 3.69095,3.69095 -5.07466,9.65212 -14.20354,9.65932 -5.06095,0.004 -7.15582,-0.74869 -10.56726,-3.79681 z m 14.62572,-21.1982 c -0.30777,-1.59815 -1.69817,-2.33333 -4.41284,-2.33333 -2.71466,0 -4.10506,0.73518 -4.41284,2.33333 -0.36162,1.8778 0.49988,2.33333 4.41284,2.33333 3.91296,0 4.77447,-0.45553 4.41284,-2.33333 z m 41.80856,23.26677 c -0.84334,-1.01617 -3.87497,-6.91598 -6.73693,-13.11069 -2.86196,-6.19471 -6.16677,-12.06249 -7.34401,-13.03952 -4.57714,-3.79868 -2.55486,-5.44989 6.6746,-5.44989 h 8.81505 l -0.91721,4.88917 c -0.93819,5.00097 2.33874,15.11083 4.8979,15.11083 0.6632,0 2.43376,-2.77599 3.93459,-6.16886 2.11481,-4.78088 2.41801,-6.85092 1.34756,-9.2003 -1.80228,-3.95558 -0.93941,-4.63084 5.91725,-4.63084 6.73338,0 8.38542,1.82289 4.98708,5.50284 -1.35517,1.46746 -5.47474,8.17352 -9.15461,14.90234 -6.65353,12.1663 -9.49197,14.72449 -12.42127,11.19492 z m 42.63658,-1.64374 c -8.08636,-6.80422 -8.45526,-18.66211 -0.81819,-26.29919 8.87376,-8.87375 25.96021,-3.18741 25.96021,8.63951 v 3.70332 h -10.66666 c -11.95679,0 -13.37234,1.41554 -7.39394,7.39393 3.78162,3.78163 5.73719,4.00075 12.07431,1.35293 7.33755,-3.06581 7.93767,2.07119 0.73876,6.3237 -5.88391,3.4757 -15.04977,2.96237 -19.89449,-1.1142 z m 13.80869,-21.95636 c 0,-3.07555 -7.83265,-2.67936 -8.43077,0.42644 -0.38856,2.01766 0.28222,2.3546 3.98174,2 2.87627,-0.2757 4.44903,-1.13346 4.44903,-2.42644 z m 35.86621,23.42941 c -2.27358,-0.98975 -4.52358,-2.81533 -5,-4.05687 -0.47641,-1.24152 -0.86621,-12.34405 -0.86621,-24.67228 0,-18.69442 -0.33197,-22.54234 -2,-23.18244 -3.98515,-1.52924 -2.06475,-4.49998 3.48235,-5.387 8.47638,-1.35542 9.54297,0.28384 8.98636,13.81144 l -0.46871,11.39107 4.66667,-0.263 c 13.09736,-0.73815 21.33333,5.8978 21.33333,17.18883 0,6.02972 -0.53259,7.25381 -5.17647,11.8977 -4.85637,4.85638 -5.66025,5.17324 -13,5.12428 -4.30294,-0.0287 -9.68373,-0.86198 -11.95732,-1.85173 z m 16.80046,-6.09608 c 1.83544,-1.83544 2.66666,-4.44444 2.66666,-8.36999 0,-7.33246 -2.95617,-11.63001 -8,-11.63001 -4.98006,0 -8,4.27824 -8,11.33333 0,10.0455 7.24516,14.75484 13.33334,8.66667 z m 33.48658,3.94812 c -13.34152,-13.34151 0.49164,-35.95215 17.61763,-28.79645 3.19321,1.33421 5.62665,3.62382 7.07136,6.65342 3.57603,7.499 2.12035,8.86158 -9.46707,8.86158 -9.15294,0 -10.04184,0.23605 -10.04184,2.66666 0,4.27486 5.00147,8.3903 9.13196,7.51423 10.65756,-2.26047 12.20138,-2.40185 12.20138,-1.11741 0,0.75137 -1.84604,2.91946 -4.10231,4.818 -3.29388,2.77161 -5.50707,3.45185 -11.23076,3.45185 -6.16303,0 -7.67724,-0.54876 -11.18035,-4.05188 z m 14.9463,-19.49211 c 1.33042,-1.33042 -1.77894,-4.45601 -4.43288,-4.45601 -2.65395,0 -5.76331,3.12559 -4.43288,4.45601 0.48253,0.48252 2.47732,0.87732 4.43288,0.87732 1.95556,0 3.95034,-0.3948 4.43288,-0.87732 z m 32.8507,19.87732 c -10.49142,-9.40133 -5.7559,-27.3011 8.02336,-30.32753 5.38127,-1.18193 13.22735,2.73365 16.34602,8.15747 3.95494,6.87822 2.22525,8.5034 -9.05026,8.5034 -5.37826,0 -10.16578,0.62638 -10.63894,1.39197 -1.29874,2.1014 2.98156,7.79317 6.5304,8.68387 1.7199,0.43168 5.26338,-0.10774 7.87438,-1.19868 2.61102,-1.09095 5.09623,-1.63462 5.52271,-1.20814 3.69095,3.69095 -5.07467,9.65212 -14.20355,9.65932 -5.0095,0.004 -7.15681,-0.75177 -10.40412,-3.66168 z m 14.46259,-21.33333 c -0.30777,-1.59815 -1.69817,-2.33333 -4.41284,-2.33333 -2.71467,0 -4.10507,0.73518 -4.41284,2.33333 -0.36163,1.8778 0.49988,2.33333 4.41284,2.33333 3.91296,0 4.77447,-0.45553 4.41284,-2.33333 z m 28.30684,23.72765 c -1.6796,-1.0624 -1.63383,-1.57754 0.33333,-3.75124 3.09058,-3.41504 3.31383,-21.33018 0.28032,-22.49424 -1.1,-0.42212 -2,-1.57609 -2,-2.56441 0,-1.86013 4.67658,-2.9394 14,-3.23097 2.93334,-0.0917 7.37738,-0.23484 9.87566,-0.31804 3.40433,-0.11334 5.32505,0.75873 7.66666,3.48101 2.64387,3.07368 3.12435,5.09129 3.12435,13.1196 0,6.82057 0.59888,10.14909 2.13061,11.84164 3.17836,3.51204 1.15814,5.189 -6.25114,5.189 -6.89968,0 -9.88576,-2.52704 -6.72318,-5.68963 2.01614,-2.01613 1.94526,-17.34216 -0.0896,-19.37704 -0.88,-0.88 -2.86,-1.6 -4.4,-1.6 -4.54684,0 -6,2.70328 -6,11.16168 0,5.42287 0.6794,8.71242 2.13062,10.31599 1.17184,1.29487 1.73642,2.99211 1.25464,3.77165 -1.07279,1.7358 -12.64423,1.84524 -15.33224,0.145 z m 57.91881,-3.15582 c -5.8909,-5.89091 -7.0256,-12.13838 -3.60789,-19.86467 4.83396,-10.92795 17.52765,-13.35403 25.92648,-4.95521 2.79472,2.79473 3.77011,4.92461 3.46605,7.56861 -0.41724,3.62813 -0.5684,3.68489 -10.84165,4.07039 -9.73709,0.36538 -10.39115,0.57465 -10,3.19957 0.23019,1.54473 2.09395,4.05493 4.14168,5.57823 3.5712,2.65657 3.96651,2.68209 9.68584,0.62544 5.98829,-2.15338 7.87764,-1.6279 6.55351,1.82272 -1.2869,3.3536 -8.2328,6.38309 -14.6349,6.38309 -5.31336,0 -6.93114,-0.6702 -10.68912,-4.42817 z m 14.38075,-19.03552 c 1.62129,-1.6213 -0.73401,-4.53631 -3.66529,-4.53631 -3.19623,0 -6.60743,2.96873 -5.12016,4.45601 1.09592,1.09592 7.70938,1.15636 8.78545,0.0803 z m 41.48515,21.87085 c -0.59267,-0.95727 -3.39378,-6.54049 -6.22468,-12.40716 -2.83091,-5.86667 -6.3648,-11.97225 -7.8531,-13.56796 -3.90261,-4.18428 -2.0085,-5.76537 6.90672,-5.76537 8.52923,0 10.29542,1.16232 7.81106,5.1404 -1.3008,2.0829 -1.1593,3.76918 0.73177,8.7209 1.28941,3.37628 2.88257,6.1387 3.54035,6.1387 0.65778,0 2.43132,-2.4215 3.94118,-5.38108 1.98892,-3.8986 2.5065,-6.6536 1.87871,-10 l -0.86651,-4.61892 h 6.0697 c 7.04886,0 8.79653,1.75746 5.43805,5.46853 -1.31097,1.44861 -5.42296,8.15321 -9.13775,14.89911 -6.51653,11.83373 -9.96542,15.03946 -12.2355,11.37285 z m 191.84877,-0.0295 c -0.75921,-0.94108 -3.92229,-6.81106 -7.02907,-13.0444 -3.10676,-6.23333 -6.47564,-11.81314 -7.48638,-12.39958 -1.01074,-0.58637 -1.83771,-2.23637 -1.83771,-3.6666 0,-2.28652 0.95616,-2.60041 7.92131,-2.60041 8.49904,0 10.32064,1.14421 8.18234,5.13964 -0.98045,1.832 -0.75817,4.04233 0.80727,8.02756 1.18813,3.0247 2.65383,5.49946 3.25709,5.49946 1.28718,0 5.16532,-7.12924 5.16532,-9.49546 0,-0.89534 -0.95877,-2.68734 -2.13061,-3.9822 -3.30931,-3.65674 -1.08204,-5.189 7.54264,-5.189 8.04936,0 9.34712,1.01602 6.68013,5.22988 -1.3194,2.08464 2.55778,13.63197 4.57754,13.63324 2.16448,10e-4 5.80274,-11.34212 4.45525,-13.89068 -1.91229,-3.61678 -0.19821,-4.97244 6.28708,-4.97244 6.62012,0 7.82651,2.36132 3.58797,7.02293 -1.28333,1.41143 -5.03333,7.75868 -8.33333,14.10499 -3.48449,6.7011 -6.83851,11.53874 -8,11.53874 -1.1,0 -3.66864,-3.3 -5.70809,-7.33333 -2.03946,-4.03333 -4.13946,-7.48147 -4.66667,-7.66252 -0.52721,-0.18105 -2.75857,3.08647 -4.95857,7.26117 -4.24216,8.04988 -6.07958,9.54816 -8.31351,6.77908 z m 57.59492,0.20492 c -0.48179,-0.77954 0.0828,-2.47678 1.25464,-3.77165 3.06113,-3.38252 3.17572,-45.61712 0.13067,-48.14433 -1.1,-0.91292 -2,-2.43366 -2,-3.3794 0,-2.02999 10.3818,-4.10547 12.07358,-2.41368 0.63315,0.63314 1.32562,6.84561 1.5388,13.80546 0.32111,10.4829 0.7308,12.56068 2.38762,12.10883 1.1,-0.3 4.31368,-0.58636 7.1415,-0.63636 4.03492,-0.0713 5.82848,0.70773 8.33334,3.6198 2.72016,3.16237 3.19182,5.11268 3.19182,13.19804 0,6.82057 0.59888,10.14909 2.13062,11.84164 3.17835,3.51204 1.15815,5.189 -6.25115,5.189 -6.89968,0 -9.88576,-2.52704 -6.72317,-5.68963 2.01613,-2.01613 1.94525,-17.34216 -0.0896,-19.37704 -0.88,-0.88 -2.86,-1.6 -4.4,-1.6 -4.54684,0 -6,2.70328 -6,11.16168 0,5.42287 0.6794,8.71242 2.13061,10.31599 3.23689,3.57685 1.12503,5.18904 -6.79736,5.18904 -3.94677,0 -7.57015,-0.63781 -8.05192,-1.41735 z m 59.57654,-1.95962 c -14.7979,-12.45158 -1.4349,-36.859 16.1561,-29.50902 5.5842,2.33323 9.3741,7.44478 8.7555,11.8089 -0.4075,2.87426 -1.1229,3.10286 -10.8547,3.46804 -9.7371,0.36538 -10.3912,0.57465 -10,3.19957 0.2301,1.54473 2.0939,4.05493 4.1416,5.57823 3.5713,2.65657 3.9666,2.68209 9.6859,0.62544 5.9883,-2.15338 7.8776,-1.6279 6.5535,1.82272 -1.2669,3.3016 -8.2183,6.38309 -14.3993,6.38309 -4.5025,0 -7.0396,-0.85349 -10.0386,-3.37697 z m 13.4946,-20.08672 c 1.6213,-1.62126 -0.734,-4.53627 -3.6653,-4.53627 -3.1962,0 -6.6074,2.96873 -5.1201,4.45601 1.0959,1.09592 7.7094,1.15636 8.7854,0.0803 z m 28.2423,22.01418 c -0.4927,-0.79724 -0.2281,-2.11724 0.588,-2.93333 2.0316,-2.03163 1.8903,-20.3308 -0.1828,-23.67593 -2.2535,-3.63612 0.4027,-5.30502 8.3333,-5.23574 3.3,0.0288 8.1528,-0.32241 10.7841,-0.78054 8.1606,-1.42084 12.1701,5.35652 5.7042,9.64214 -2.5009,1.65766 -3.1228,1.60794 -5.1418,-0.41108 -1.7145,-1.71445 -2.8524,-1.948 -4.4883,-0.9211 -3.215,2.01816 -3.803,17.17781 -0.7952,20.50137 1.209,1.33596 1.804,3.06683 1.3223,3.84637 -1.1522,1.86424 -14.9688,1.83668 -16.1238,-0.0321 z m 46.8124,-2.88378 c -5.9565,-5.96636 -7.0953,-12.71483 -3.4251,-20.29651 5.1561,-10.65108 17.3601,-12.89971 25.5518,-4.708 2.5306,2.53055 3.7994,5.16945 3.7994,7.90195 v 4.10256 h -9.9213 c -5.4567,0 -10.3084,0.62638 -10.7816,1.39197 -1.2987,2.1014 2.9816,7.79317 6.5304,8.68387 1.7199,0.43168 5.2634,-0.10774 7.8744,-1.19868 2.611,-1.09095 5.0962,-1.63462 5.5227,-1.20814 3.6061,3.60611 -5.493,9.66431 -14.5153,9.66431 -5.3419,0 -6.9726,-0.66444 -10.6354,-4.33333 z m 14.5928,-21 c 0,-3.07555 -7.8327,-2.67936 -8.4308,0.42644 -0.3886,2.01766 0.2822,2.3546 3.9817,2 2.8763,-0.2757 4.4491,-1.13346 4.4491,-2.42644 z m 30.6671,22.18786 c -1.1335,-1.73 -1.6812,-4.13517 -1.217,-5.34484 1.1191,-2.91618 6.7395,-4.23213 9.2339,-2.16198 2.8038,2.32696 2.4624,7.63505 -0.5964,9.27205 -3.8074,2.03768 -5.1358,1.72168 -7.4205,-1.76523 z m 33.3454,-1.08382 c -9.927,-9.0974 -7.1986,-23.72704 5.3164,-28.50656 6.0607,-2.31459 14.2058,-1.84516 17.6711,1.01842 1.9345,1.59868 2.2615,11.19239 0.4202,12.33039 -0.6855,0.42368 -2.8567,-1.34091 -4.8249,-3.92132 -3.776,-4.95063 -9.5478,-6.36373 -12.3249,-3.01752 -4.1594,5.01185 -2.7261,15.58451 2.4914,18.37684 3.1869,1.70557 8.7728,1.62527 12.1356,-0.17448 4.4115,-2.36093 6.3867,0.76532 2.7692,4.38284 -2.1324,2.1324 -4.9822,3.04724 -10.8042,3.46836 -7.4866,0.54153 -8.1712,0.33069 -12.8499,-3.95697 z m 47.5121,0.85232 c -8.3183,-6.99939 -8.7444,-18.85312 -0.9245,-25.7191 12.3299,-10.82577 31.3999,-3.27705 31.3999,12.4294 0,10.79335 -6.7537,16.66667 -19.1648,16.66667 -5.8636,0 -8.0858,-0.66345 -11.3106,-3.37697 z m 17.3704,-4.16302 c 5.7122,-5.16953 1.1073,-20.46001 -6.1619,-20.46001 -7.6617,0 -9.9255,13.47427 -3.3659,20.03392 3.2121,3.21211 6.2968,3.35007 9.5278,0.42609 z m 28.3864,6.12264 c -0.4818,-0.77954 0.083,-2.47678 1.2546,-3.77165 2.898,-3.2022 2.9946,-19.10075 0.1307,-21.47767 -4.8547,-4.02902 0.461,-7.84113 8.65,-6.20332 2.1369,0.42738 5.6488,0.16231 7.8041,-0.58905 2.9215,-1.01844 5.0618,-0.88857 8.4097,0.51028 3.815,1.59397 5.2803,1.60307 9.7363,0.0604 6.2573,-2.16632 13.2501,-0.46183 15.5221,3.78351 0.7894,1.47484 1.7652,7.2768 2.1685,12.89321 0.4034,5.61643 1.3476,10.98711 2.0982,11.93485 2.2834,2.88307 -0.8231,4.4716 -7.8696,4.02415 -5.706,-0.36235 -6.4534,-0.74665 -5.9912,-3.08065 0.2905,-1.46667 0.5905,-6.7981 0.6667,-11.8476 0.1115,-7.39062 -0.3165,-9.46934 -2.1948,-10.65986 -1.698,-1.0762 -2.9687,-1.07994 -4.6667,-0.0137 -3.3505,2.10384 -4.0359,17.16656 -0.937,20.59083 3.2446,3.58526 1.2729,5.26372 -6.1835,5.26372 -6.8997,0 -9.8858,-2.52704 -6.7232,-5.68963 1.5847,-1.58467 2.0922,-15.24285 0.7011,-18.86799 -0.9539,-2.48564 -5.9715,-2.79497 -8.2574,-0.50905 -2.4355,2.43552 -2.0459,17.03063 0.5306,19.87767 3.237,3.57674 1.1251,5.18893 -6.7973,5.18893 -3.9468,0 -7.5701,-0.63781 -8.0519,-1.41735 z"
       id="path831"
       inkscape:connector-curvature="0" />
    <path
       style="fill:#b0b0b0;stroke-width:1.33333325"
       d="m 835.47235,384.65149 c -1.90414,-2.10405 -2.15188,-3.27113 -1.06134,-5 1.97089,-3.12449 6.31869,-2.86564 6.9098,0.41139 0.79469,4.40568 2.35573,5.00396 7.06897,2.70925 l 4.48653,-2.18435 -3.74101,3.40422 c -4.54391,4.13481 -10.2678,4.41109 -13.66295,0.65949 z m 20.17124,-14.93361 c -0.47213,-2.37692 -3.77004,-10.21655 -7.32866,-17.4214 -6.83322,-13.83464 -6.77566,-14.86513 0.78209,-13.99969 3.15411,0.36117 3.71583,0.98417 3.39561,3.76609 -0.48568,4.21953 6.11935,20 8.37114,20 1.9255,0 7.86777,-14.90331 7.95482,-19.95085 0.0375,-2.17152 0.92659,-3.51355 2.53268,-3.82275 5.05851,-0.97387 5.11811,1.98245 0.19514,9.67831 -2.66812,4.17093 -6.55368,11.37821 -8.63459,16.01617 -4.57095,10.18776 -6.13799,11.42405 -7.26823,5.73412 z m -96.34885,-2.25531 c -5.25609,-3.20486 -7.08509,-6.48633 -7.08509,-12.71158 0,-5.74016 2.85442,-11.73451 6.95572,-14.60718 6.46665,-4.52941 20.20797,-1.21061 21.83542,5.27367 1.58782,6.32637 0.13878,7.31207 -10.7493,7.31207 -5.52302,0 -10.04184,0.57177 -10.04184,1.2706 0,3.3198 3.44697,8.20777 6.29153,8.9217 1.74224,0.43728 5.65561,0.39722 8.69637,-0.0891 5.4957,-0.87879 5.51402,-0.86787 3.07051,1.83217 -2.16209,2.38908 -9.59568,5.37848 -13.39175,5.38547 -0.73333,0.001 -3.24504,-1.1632 -5.58157,-2.5879 z m 8.74824,-19.56636 c 4.91269,-0.98253 5.684,-4.92745 1.41059,-7.21452 -3.49392,-1.86988 -9.24392,1.4965 -9.24392,5.41192 0,2.82048 1.27589,3.1141 7.83333,1.8026 z m -456.63333,16.3 c -3.71494,-3.71493 -4.53334,-5.54326 -4.53334,-10.12761 0,-10.37215 5.67498,-16.00572 16.12335,-16.00572 6.30539,0 11.87665,4.6362 11.87665,9.88331 0,3.24096 -0.29997,3.34916 -10.33333,3.72728 l -10.33333,0.38941 0.28789,4 c 0.45132,6.27064 4.98737,9.11964 13.04107,8.19084 l 6.67104,-0.76935 -3.33334,2.59294 c -2.113,1.64366 -5.45672,2.6038 -9.13333,2.62258 -4.83891,0.0248 -6.5512,-0.72154 -10.33333,-4.50368 z m 15.96044,-17.4969 c 0.88142,-2.29696 -3.5036,-7.3031 -6.397,-7.3031 -2.33487,0 -7.67194,6.53003 -6.66659,8.15672 1.29499,2.09532 12.20555,1.38239 13.06359,-0.85362 z m 40.39241,19.07273 c -1.04369,-1.67337 -4.60709,-8.33548 -7.91867,-14.80469 -6.3749,-12.45348 -6.26825,-13.53184 1.25319,-12.67056 3.01996,0.34581 3.71555,1.03516 3.46199,3.431 -0.42884,4.05224 5.7196,17.66842 7.97825,17.66842 2.37917,0 7.67239,-11.00878 7.67239,-15.95697 0,-4.48915 1.59457,-5.89633 5.33593,-4.70887 2.46641,0.78282 2.28224,1.37443 -2.72204,8.74356 -2.95211,4.34716 -6.49825,10.54196 -7.88033,13.76622 -3.15343,7.35665 -4.77899,8.38257 -7.18071,4.53189 z m 43.6032,0.59452 c -4.20251,-3.40415 -5.82272,-7.38841 -5.82272,-14.31859 0,-5.06404 0.70905,-6.89928 3.89744,-10.08765 3.19107,-3.19108 5.02204,-3.89744 10.10256,-3.89744 5.11543,0 6.90688,0.70175 10.20111,3.99597 6.54528,6.5453 4.90678,8.60263 -7.21556,9.06011 -10.01794,0.37807 -10.31888,0.48677 -10.31888,3.72728 0,1.83581 1.54773,4.88559 3.43941,6.77727 3.02961,3.02961 4.1814,3.34398 9.66667,2.63844 l 6.22725,-0.80098 -3.14771,2.6343 c -3.98585,3.3357 -13.06788,3.48038 -17.02957,0.27129 z m 14.17728,-20.27295 c 0,-3.80174 -5.75215,-7.28065 -9.08705,-5.49586 -2.88436,1.54365 -4.66052,5.04952 -3.50526,6.91878 0.41234,0.66716 3.41428,1.21302 6.671,1.21302 5.0094,0 5.92131,-0.40595 5.92131,-2.63594 z m 35.04647,20.66764 c -2.55344,-1.11021 -4.56264,-3.11092 -4.96886,-4.9478 -0.37509,-1.69614 -0.846,-13.43449 -1.04646,-26.08521 -0.2793,-17.62521 0.0251,-23.04775 1.30218,-23.2 0.91667,-0.10933 2.41667,-0.25869 3.33334,-0.33203 1.19078,-0.0952 1.85701,3.67367 2.33333,13.2 l 0.66667,13.33334 8.3322,-0.4678 c 8.00833,-0.44962 8.51365,-0.28635 13,4.2 5.28629,5.28629 6.18033,11.47529 2.64522,18.31144 -3.83378,7.41373 -15.8524,10.22525 -25.59762,5.98806 z m 16.54613,-3.69837 c 5.86967,-6.46416 4.65963,-18.08877 -2.25513,-21.66453 -5.1921,-2.68494 -6.24172,-2.55243 -10.06474,1.2706 -2.65497,2.65496 -3.27273,4.6124 -3.27273,10.36998 0,9.05938 2.59045,13.02395 8.50985,13.02395 2.82404,0 5.31775,-1.05624 7.08275,-3 z m 34.68373,2.97915 c -7.57594,-5.95924 -7.61002,-19.30559 -0.0644,-25.24095 5.50535,-4.33051 14.30719,-3.75756 19.32254,1.25777 6.52536,6.52538 4.89866,8.60252 -7.0936,9.05792 -10.75003,0.40823 -12.2602,1.36292 -10.33736,6.53504 1.83474,4.93516 7.17837,7.52378 13.58412,6.58055 l 5.64573,-0.83132 -3.14771,2.66425 c -4.24496,3.59296 -13.327,3.58116 -17.90929,-0.0232 z m 14.65452,-19.52016 c 0.79526,-2.07238 -3.6471,-7.12566 -6.26418,-7.12566 -0.57086,0 -2.40444,1.10655 -4.07463,2.45899 -4.54437,3.67981 -2.65088,6.87435 4.07463,6.87435 3.81162,0 5.66809,-0.65427 6.26418,-2.20768 z m 34.29608,20.68161 c -3.9849,-1.93361 -7.22693,-8.10967 -7.22693,-13.76731 0,-9.70801 5.39879,-15.29825 14.81819,-15.34364 4.89213,-0.0236 6.87116,0.68999 9.66666,3.4855 1.93334,1.93333 3.51515,4.90809 3.51515,6.61058 0,2.93858 -0.52361,3.11516 -10.33333,3.48486 -9.53234,0.35922 -10.36607,0.61976 -10.75568,3.36101 -0.26187,1.84252 0.9165,4.31043 3.10137,6.49531 3.03505,3.03505 4.34172,3.4315 9.42235,2.85885 6.42254,-0.72392 7.13666,-0.22621 3.56529,2.48484 -2.73163,2.07361 -11.7892,2.26311 -15.77307,0.33 z m 12.77307,-20.70228 c 0,-2.63983 -3.75453,-7.10499 -5.97423,-7.10499 -2.38793,0 -7.75552,6.2799 -6.75344,7.9013 0.48678,0.78762 3.54964,1.43204 6.80636,1.43204 4.64418,0 5.92131,-0.48062 5.92131,-2.22835 z m 85.61859,18.30848 c -4.63494,-4.63493 -5.98422,-9.97745 -4.17486,-16.53043 2.91214,-10.54684 16.3059,-14.00521 24.09071,-6.2204 6.54528,6.5453 4.90679,8.60263 -7.21556,9.06011 -10.01793,0.37807 -10.31888,0.48677 -10.31888,3.72728 0,1.83581 1.54773,4.88559 3.43941,6.77727 3.02962,3.02961 4.1814,3.34398 9.66667,2.63844 l 6.22725,-0.80098 -3.1477,2.6343 c -5.00394,4.18772 -13.69554,3.58592 -18.56704,-1.28559 z m 15.45146,-18.99596 c 0.63304,-3.33923 -5.52678,-6.98048 -8.82377,-5.21597 -2.92727,1.56662 -4.65589,5.05701 -3.46156,6.98948 0.43635,0.70602 3.28312,1.10188 6.32615,0.87966 3.9256,-0.28665 5.65665,-1.05736 5.95918,-2.65317 z m 40.45712,21.14939 c -0.8063,-0.97154 -3.62881,-6.52154 -6.27222,-12.33334 -2.64343,-5.81178 -5.73887,-11.60438 -6.87875,-12.87242 -1.87225,-2.08275 -1.8726,-2.38226 -0.004,-3.09943 1.13787,-0.43665 3.76955,-0.59916 5.84816,-0.36113 3.10631,0.35569 3.80341,1.0971 3.91473,4.16352 0.0745,2.0519 1.54506,6.74036 3.26794,10.41877 2.38425,5.09049 3.70546,6.53819 5.53122,6.06073 2.89304,-0.75654 2.90163,-0.66153 0.46678,5.1659 -2.06968,4.95344 -3.54076,5.66902 -5.8742,2.8574 z m 307.75805,-2.28508 c -4.1509,-4.44358 -5.1683,-8.81527 -3.7113,-15.94848 2.202,-10.78107 16.0068,-14.62439 23.9605,-6.6707 6.5453,6.5453 4.9068,8.60263 -7.2155,9.06011 -10.018,0.37807 -10.3189,0.48677 -10.3189,3.72728 0,1.83581 1.5477,4.88559 3.4394,6.77727 3.0296,3.02961 4.1814,3.34398 9.6667,2.63844 l 6.2272,-0.80098 -3.1477,2.6343 c -2.1085,1.7646 -5.1232,2.63428 -9.1317,2.63428 -4.9466,0 -6.6402,-0.7024 -9.7687,-4.05152 z m 15.7849,-18.86431 c 0.633,-3.33923 -5.5269,-6.98048 -8.8238,-5.21597 -2.9273,1.56662 -4.6559,5.05701 -3.4616,6.98948 0.4363,0.70602 3.2831,1.10188 6.3261,0.87966 3.9257,-0.28665 5.6567,-1.05736 5.9593,-2.65317 z m 75.4193,20.55284 c -4.167,-3.37541 -5.8227,-7.37767 -5.8227,-14.07501 0,-4.72195 0.7966,-6.7995 3.8682,-10.08766 3.3318,-3.56666 4.7948,-4.14101 10.5482,-4.14101 5.8222,0 7.123,0.52669 10.1317,4.10231 1.8985,2.25625 3.4519,5.23102 3.4519,6.61057 0,2.20623 -1.2444,2.55517 -10.3334,2.89771 -9.5323,0.35922 -10.366,0.61976 -10.7556,3.36101 -0.262,1.84328 0.9174,4.31133 3.106,6.50001 3.1258,3.12579 4.2391,3.43703 9.7557,2.72746 l 6.2273,-0.80098 -3.1477,2.6343 c -3.9859,3.3357 -13.0679,3.48038 -17.0296,0.27129 z m 14.1773,-20.27295 c 0,-3.80174 -5.7522,-7.28065 -9.0871,-5.49586 -2.8843,1.54365 -4.6605,5.04952 -3.5052,6.91878 0.4123,0.66716 3.4142,1.21302 6.671,1.21302 5.0094,0 5.9213,-0.40595 5.9213,-2.63594 z m 31,21.67799 c -2.3504,-0.84276 -2.0788,-6.96761 0.3503,-7.89973 2.3507,-0.90207 5.983,1.71293 5.983,4.30736 0,2.15346 -4.0072,4.42642 -6.3333,3.59237 z m 34.0167,-1.12924 c -6.997,-3.79657 -9.5509,-13.10055 -5.6608,-20.62312 2.0873,-4.03651 9.5517,-8.88137 11.1013,-7.20547 0.4819,0.52114 0.1135,1.21959 -0.8186,1.55211 -2.5274,0.90165 -5.6386,7.67537 -5.6386,12.27641 0,2.58582 1.4037,5.6161 3.8909,8.39955 3.4627,3.87507 4.6001,4.32839 10.3334,4.11832 6.1649,-0.22588 6.2988,-0.15616 3.109,1.61943 -4.3419,2.4169 -11.7237,2.35482 -16.3166,-0.13723 z m 46.9466,-0.18496 c -6.7287,-4.63759 -8.712,-10.23787 -6.4837,-18.30815 1.8165,-6.57881 7.6537,-10.07484 16.8327,-10.08138 5.7338,-0.004 7.711,0.64918 11.0823,3.66168 7.763,6.93686 6.3249,20.31858 -2.6843,24.97742 -5.2259,2.7024 -14.6459,2.577 -18.747,-0.24957 z m 16.8544,-3.77131 c 4.6817,-7.1451 1.6285,-19.25222 -5.5425,-21.97865 -4.3038,-1.63627 -6.9545,-0.46579 -9.3246,4.11747 -3.0337,5.86664 -2.4588,12.42949 1.5012,17.13566 4.4415,5.27838 10.1787,5.58979 13.3659,0.72552 z M 244.27878,355.72955 c -3.07816,-6.41667 -6.53464,-12.70416 -7.68105,-13.9722 -1.88087,-2.08042 -1.88239,-2.38306 -0.0155,-3.09943 1.13787,-0.43665 3.76955,-0.59916 5.84816,-0.36113 3.29544,0.37736 3.87509,1.11557 4.52755,5.76609 0.91617,6.53023 4.69561,14 7.08349,14 0.96979,0 2.86751,-2.44879 4.21715,-5.44176 1.96902,-4.36651 2.16941,-6.19543 1.01414,-9.25608 -1.65556,-4.38608 -1.12857,-5.30216 3.05014,-5.30216 5.00477,0 6.978,1.30467 6.24022,4.12596 -0.80208,3.06713 2.95562,13.64072 5.63922,15.86791 1.49006,1.23665 2.38892,0.48536 4.5965,-3.84186 1.50932,-2.9585 2.74422,-7.52184 2.74422,-10.14074 0,-4.97626 2.22204,-6.97884 6.0947,-5.49276 1.82362,0.69978 1.72707,1.32013 -0.74596,4.79318 -1.56237,2.19415 -4.92317,8.49663 -7.46842,14.00551 -2.54526,5.50887 -5.39926,10.01613 -6.3422,10.01613 -0.94296,0 -3.43511,-3.6 -5.53812,-8 -2.10302,-4.4 -4.53139,-8 -5.39642,-8 -0.86501,0 -3.18833,3.6 -5.16293,8 -1.9746,4.4 -4.38175,8 -5.3492,8 -0.96745,0 -4.27749,-5.25 -7.35565,-11.66666 z m 359.39728,-2.66744 0.13307,-14.33256 3.86693,0.31772 c 5.07769,0.4172 5.51199,0.40118 12.53359,-0.46204 5.11565,-0.62891 6.42028,-0.27959 8.85144,2.37001 2.3362,2.54611 2.95554,5.21572 3.42764,14.77431 l 0.57621,11.66666 h -4.12023 -4.12022 l 0.49646,-9.83126 c 0.61634,-12.20524 -0.87128,-15.50207 -6.99496,-15.50207 -6.64981,0 -7.80749,2.33836 -7.24878,14.64144 l 0.48554,10.69189 -4.00989,-7.7e-4 -4.00988,-7.7e-4 0.13307,-14.33256 z m 198.47541,2.66861 c -0.032,-6.41731 -0.53122,-12.93848 -1.1094,-14.49149 -0.88806,-2.38543 -0.46737,-2.93526 2.71066,-3.54278 2.06902,-0.39552 4.81214,-0.15704 6.09581,0.52996 1.62145,0.86778 3.30565,0.61239 5.51708,-0.8366 2.60301,-1.70556 3.82048,-1.79528 6.68025,-0.49228 1.95998,0.89303 3.49711,2.68983 3.49711,4.08788 0,3.37111 -3.9874,4.7685 -5.56464,1.95012 -1.70188,-3.04108 -4.47236,-2.76058 -7.84232,0.79402 -2.52383,2.66209 -2.77977,4.16388 -2.27244,13.33333 l 0.57173,10.33333 -4.11282,10e-4 -4.11284,0.001 -0.0581,-11.66784 z m 100.17467,2.91935 c -2.09563,-4.81039 -5.26688,-10.89264 -7.04723,-13.51614 -3.7843,-5.57646 -2.74933,-7.45722 3.76119,-6.83484 3.92653,0.37536 4.453,0.85711 4.11317,3.76379 -0.49538,4.23716 4.91499,16 7.35927,16 1.01588,0 3.03824,-2.69288 4.49413,-5.98416 2.1138,-4.77861 2.34243,-6.55341 1.13484,-8.80981 -1.95402,-3.65115 -0.1,-5.55067 4.85774,-4.97694 3.30984,0.38304 3.80205,1.01923 3.94908,5.10424 0.0924,2.56667 1.49886,7.26118 3.12552,10.43223 2.38288,4.64525 3.31749,5.46687 4.80985,4.22831 2.62649,-2.17979 6.16045,-12.04884 5.7076,-15.93922 -0.26864,-2.30776 0.35127,-3.43061 2.09331,-3.7917 5.06678,-1.05028 5.11601,1.94918 0.15917,9.69798 -2.68789,4.20184 -5.78657,10.27958 -6.88595,13.50607 -1.09937,3.22648 -2.83382,5.86633 -3.85433,5.86633 -1.02051,0 -3.67275,-3.6 -5.89385,-8 -2.22111,-4.4 -4.77975,-7.98016 -5.68587,-7.95592 -0.90611,0.0243 -3.26417,3.62424 -5.24015,8 -1.97598,4.37576 -4.39246,7.95592 -5.36997,7.95592 -0.97751,0 -3.49189,-3.93577 -5.58752,-8.74614 z m 65.63365,-16.01502 c 0.30122,-17.89686 -0.0288,-25.30134 -1.19,-26.70053 -2.02628,-2.44152 -1.21057,-3.25436 3.61108,-3.59843 l 3.82878,-0.27321 0.66666,14 c 0.55368,11.62735 1.00562,13.89808 2.66667,13.3986 1.1,-0.33077 4.62896,-0.63077 7.84212,-0.66667 8.26437,-0.0923 10.436,3.33295 11.15928,17.6014 l 0.5576,11 h -4.13875 -4.13874 l 0.49646,-9.83126 c 0.61634,-12.20524 -0.87128,-15.50207 -6.99496,-15.50207 -6.64981,0 -7.80749,2.33836 -7.24878,14.64144 l 0.48554,10.69189 -4.00989,10e-4 -4.00988,0.001 0.41681,-24.76443 z m 100.85071,13.0945 c 0.036,-6.41667 -0.4387,-12.69155 -1.0554,-13.94418 -0.878,-1.78349 -0.3681,-2.4665 2.3506,-3.14889 2.0137,-0.50539 4.2806,-0.20023 5.3973,0.72657 1.5166,1.25864 2.5668,1.1487 4.9461,-0.51778 1.6613,-1.16364 4.366,-2.11572 6.0103,-2.11572 3.6623,0 6.3311,4.21914 4.0879,6.4624 -2.1283,2.12822 -4.5714,1.92232 -5.4865,-0.4624 -1.0591,-2.76011 -3.9829,-2.50266 -6.7888,0.59777 -1.9365,2.13977 -2.265,4.49056 -1.8634,13.33333 l 0.4875,10.73556 h -4.0757 -4.0758 l 0.066,-11.66666 z m 219.128,0.53802 c 0.362,-6.89737 0.01,-12.20792 -0.9351,-13.96722 -1.33,-2.48522 -1.116,-2.93978 1.7194,-3.6514 1.7812,-0.44706 4.3767,-0.20367 5.7679,0.54085 1.56,0.83493 3.2682,0.8862 4.4575,0.1338 2.7767,-1.75676 10.1882,-1.53723 13.2796,0.39335 2.1081,1.31652 3.189,1.31652 5.2971,0 1.4567,-0.90974 5.0227,-1.65407 7.9244,-1.65407 7.3397,0 9.427,3.33257 9.427,15.051 0,5.01837 0.6211,10.28487 1.3803,11.70332 1.2515,2.33848 0.9095,2.57931 -3.6667,2.58215 l -5.0469,0.003 0.4371,-10.74146 c 0.4881,-11.99312 -0.6604,-14.59767 -6.4371,-14.59767 -5.9055,0 -7.0842,2.70653 -6.3913,14.67573 l 0.617,10.6576 h -4.1564 -4.1565 l 0.5263,-9.31409 c 0.2895,-5.12275 0.1577,-10.78275 -0.2928,-12.57779 -1.0895,-4.34086 -5.3964,-5.57285 -9.6769,-2.76812 -3.2698,2.14242 -3.3822,2.65768 -2.9347,13.4441 l 0.4653,11.21629 -4.0943,-2e-4 -4.0943,-1.9e-4 z m -562.97985,-4.67781 c 1.27549,-3.19355 2.37876,-7.38588 2.4517,-9.31628 0.0867,-2.29461 0.98954,-3.67443 2.60759,-3.98525 4.7682,-0.91595 4.65287,1.83994 -0.3978,9.50514 -6.68761,10.14951 -7.44539,10.76666 -4.66149,3.79639 z m 482.05695,-8.94159 -4.5273,-4.58529 h 3.9273 c 4.7174,0 7.1274,2.119 7.1274,6.26667 0,4.0731 -1.134,3.781 -6.5274,-1.68138 z"
       id="path829"
       inkscape:connector-curvature="0" />
    <path
       style="fill:#8f8f8f;stroke-width:1.33333325"
       d="m 837.20965,384.21705 c -2.68671,-2.69973 -2.93936,-4.28892 -0.88383,-5.55931 2.15341,-1.33088 4.17227,1.33315 3.66337,4.83411 -0.42561,2.92816 -0.55392,2.96163 -2.77954,0.7252 z m 19.44729,-16.403 c -0.47696,-1.32981 -3.44545,-7.99713 -6.59665,-14.81626 -4.48208,-9.69916 -5.32112,-12.55514 -3.8539,-13.11816 2.69296,-1.03339 4.66992,0.57052 4.66992,3.7887 0,1.52976 2.1,7.14748 4.66667,12.4838 2.56667,5.33632 4.66667,10.31387 4.66667,11.06122 0,2.56441 -2.68552,3.01849 -3.55271,0.6007 z m -94.66855,-1.08662 c -4.99173,-2.09887 -7.08469,-4.79598 -7.97393,-10.27568 -0.71468,-4.4041 2.72767,-15.63418 4.30793,-14.05391 0.40942,0.40943 0.7444,4.088 0.7444,8.17463 0,8.65301 2.44792,12.56958 9.29768,14.87588 l 4.49372,1.51301 -3.54501,0.67768 c -1.94976,0.37272 -5.24592,-0.0375 -7.32479,-0.91161 z m -449.8813,-3.22866 c -3.14415,-3.14413 -3.89744,-5.04838 -3.89744,-9.85228 0,-3.91512 0.88382,-7.03305 2.58025,-9.10257 l 2.58025,-3.14771 -0.58828,8.14331 c -0.68676,9.50644 2.00439,14.31113 9.17832,16.38672 l 4.24946,1.22947 -5.10256,0.12026 c -3.95643,0.0932 -5.97802,-0.7552 -9,-3.77718 z m 50.83605,-9.43074 c -5.30531,-10.73076 -6.25503,-13.60578 -4.69249,-14.20538 2.94253,-1.12916 6.01598,0.5003 5.15849,2.73488 -0.85031,2.21588 5.86415,18.13202 7.64925,18.13202 1.58615,0 1.45591,4.98766 -0.15625,5.98404 -0.71913,0.44444 -4.30068,-5.24606 -7.959,-12.64556 z m 47.83061,9.43074 c -3.14414,-3.14413 -3.89744,-5.04838 -3.89744,-9.85228 0,-3.86198 0.8896,-7.05346 2.53118,-9.08073 l 2.53117,-3.12587 -0.62519,7.73538 c -0.73258,9.06409 1.40096,13.40638 7.99682,16.27544 l 4.23269,1.84113 -4.43589,0.0521 c -3.16927,0.0373 -5.54879,-1.06069 -8.33334,-3.84525 z m 100.98343,0.41467 c -4.53904,-4.53904 -5.65708,-10.74515 -3.05685,-16.96835 2.86572,-6.85864 4.61654,-6.11317 3.40813,1.45112 -1.37465,8.60491 1.65545,15.05998 8.10119,17.25808 l 4.66666,1.59142 -4.81818,0.0752 c -3.48191,0.0544 -5.78408,-0.89066 -8.30095,-3.40752 z m 47.01657,-0.41467 c -3.14414,-3.14413 -3.89744,-5.04838 -3.89744,-9.85228 0,-3.8717 0.8896,-7.05346 2.543,-9.09533 l 2.543,-3.14047 -0.56008,7.8674 c -0.65398,9.1866 1.37179,13.32948 7.90806,16.17262 l 4.23269,1.84113 -4.43589,0.0521 c -3.16927,0.0373 -5.54879,-1.06069 -8.33334,-3.84525 z m 101.33334,0 c -2.1436,-2.14358 -3.96386,-5.29358 -4.04503,-7 -0.30577,-6.42796 0.42521,-9.83958 2.58561,-12.0675 2.09051,-2.15583 2.19972,-1.88298 1.76199,4.402 -0.63337,9.0942 1.59631,13.91236 7.58967,16.4007 l 4.87698,2.02483 -4.43589,0.0687 c -3.18304,0.0493 -5.53668,-1.03208 -8.33333,-3.82874 z m 50.32041,-8.51958 c -3.33765,-7.14236 -6.10207,-13.42042 -6.14315,-13.95122 -0.0411,-0.5308 1.2753,-0.96509 2.9253,-0.96509 2.19222,0 3.04138,0.82144 3.15372,3.05075 0.20146,3.99838 4.36656,13.55477 7.42326,17.03193 2.10326,2.39255 2.17632,3.07835 0.56311,5.28455 -1.70444,2.33096 -2.34269,1.489 -7.92224,-10.45092 z m 313.6796,8.51958 c -3.2519,-3.25189 -3.8975,-4.98441 -3.8975,-10.46001 0,-4.55528 0.7137,-7.20965 2.3334,-8.67809 2.2,-1.99468 2.3067,-1.69206 1.8666,5.29849 -0.5728,9.10033 1.3273,12.97223 7.6561,15.60129 l 4.8106,1.99835 -4.4359,0.0687 c -3.183,0.0493 -5.5367,-1.03208 -8.3333,-3.82874 z m 89.3333,0 c -3.1441,-3.14413 -3.8974,-5.04838 -3.8974,-9.85228 0,-3.86198 0.8896,-7.05346 2.5312,-9.08073 l 2.5311,-3.12587 -0.6251,7.73538 c -0.7326,9.06409 1.4009,13.40638 7.9968,16.27544 l 4.2327,1.84113 -4.4359,0.0521 c -3.1693,0.0373 -5.5488,-1.06069 -8.3334,-3.84525 z m 78.708,0.23078 c -5.8753,-5.24996 -6.8035,-13.07598 -2.1856,-18.42578 l 3.3731,-3.90756 -1.4378,5.4139 c -1.8676,7.03274 -0.5041,12.08761 4.5289,16.78916 5.4259,5.06849 1.3854,5.19152 -4.2786,0.13026 z M 244.49557,353.42817 c -5.05792,-9.80936 -6.20779,-13.06812 -4.80159,-13.60773 3.22943,-1.23925 5.849,0.70776 5.849,4.34729 0,1.93703 1.89625,7.07962 4.21389,11.42795 2.96635,5.56544 3.79578,8.3242 2.80159,9.31839 -0.99419,0.99418 -3.38124,-2.40627 -8.06289,-11.4859 z m 23.65322,4.54239 c -2.26168,-4.71589 -5.03424,-10.28333 -6.16124,-12.37209 -1.41156,-2.6162 -1.61994,-4.22688 -0.66977,-5.17706 2.26571,-2.2657 5.55853,-0.0464 5.55853,3.74632 0,1.93703 1.89626,7.07962 4.2139,11.42795 3.1568,5.92277 3.8322,8.28777 2.69232,9.42765 -1.13987,1.13987 -2.55314,-0.62938 -5.63374,-7.05277 z m 191.06086,7.20928 c -1.23384,-0.49787 -1.66667,-6.09961 -1.66667,-21.57021 0,-11.49372 -0.54568,-22.80038 -1.21263,-25.12588 -0.90308,-3.14887 -0.76618,-4.39952 0.53631,-4.89934 2.93671,-1.12692 3.34299,0.46526 3.34299,13.1007 0,7.02908 0.61594,12.79372 1.45685,13.63462 1.05359,1.05359 1.02149,2.27034 -0.11587,4.39562 -1.6353,3.0556 -1.28761,14.9332 0.5566,19.0142 1.05166,2.32718 0.25895,2.72396 -2.89753,1.45029 z m 20.52481,-2.55541 c 1.24127,-1.89442 2.25296,-6.03835 2.25296,-9.22822 0,-3.18986 -1.01169,-7.3338 -2.25296,-9.22821 -1.87237,-2.8576 -1.92625,-3.43845 -0.31899,-3.43845 1.06368,0 3.17751,1.58092 4.6974,3.51314 3.95208,5.02426 3.65966,12.5505 -0.68841,17.71788 -4.18656,4.97546 -6.82621,5.45034 -3.69,0.66386 z m 125.56668,-9.4013 c -0.321,-9.70166 0.004,-13.00365 1.33147,-13.51037 3.14409,-1.20056 3.75634,1.48443 3.19625,14.01679 -0.40699,9.10626 -1.01587,12.33333 -2.32705,12.33333 -1.32655,0 -1.88332,-3.24848 -2.20067,-12.83975 z m 21.57517,2.26986 c 0,-9.83074 -0.24568,-10.76315 -3.51314,-13.33334 l -3.51315,-2.76344 h 3.34989 c 5.28051,0 6.94842,3.37531 7.6764,15.53463 0.59694,9.97031 0.42259,11.13492 -1.66666,11.13356 -2.02587,-10e-4 -2.33334,-1.39432 -2.33334,-10.57141 z m 177.07936,-1.76344 c -0.24377,-6.78334 0.0301,-12.91986 0.60875,-13.6367 1.47616,-1.82894 5.82488,1.2393 4.97856,3.51262 -0.36667,0.9849 -0.66667,6.44126 -0.66667,12.12522 0,8.78751 -0.3351,10.3343 -2.2387,10.33334 -1.90267,-9.8e-4 -2.30524,-1.85248 -2.68194,-12.33448 z m 97.24158,0 c -5.90408,-11.84431 -6.38407,-15.66616 -1.7439,-13.88556 1.1493,0.44102 2.08963,2.04064 2.08963,3.5547 0,2.95182 6.22405,16.15516 8.22003,17.43746 1.31313,0.84362 0.0875,5.22673 -1.46163,5.22673 -0.52596,0 -3.72281,-5.55 -7.10413,-12.33333 z m 23.73992,4.66666 c -2.00016,-4.21666 -4.72122,-9.76666 -6.04679,-12.33333 -2.69589,-5.21999 -2.39253,-6.66667 1.39796,-6.66667 1.79108,0 2.59199,0.92378 2.601,3 0.0145,3.35887 6.09785,17.1658 8.11149,18.4103 1.4105,0.87173 0.22731,5.25637 -1.41842,5.25637 -0.55472,0 -2.64508,-3.45 -4.64524,-7.66667 z m 44.40581,-17 c -0.11,-13.56666 -0.26,-25.41666 -0.33333,-26.33333 -0.0733,-0.91667 0.76666,-1.66667 1.86666,-1.66667 1.61616,0 2.12795,2.81482 2.66667,14.66667 1.01493,22.32855 0.13541,38 -2.13267,38 -1.52638,0 -1.90385,-4.50369 -2.06733,-24.66667 z m 21.53333,14.09678 c 0,-9.83074 -0.24568,-10.76315 -3.51314,-13.33334 l -3.51315,-2.76344 h 3.34989 c 5.28051,0 6.94842,3.37531 7.6764,15.53463 0.59694,9.97031 0.42259,11.13492 -1.66666,11.13356 -2.02587,-10e-4 -2.33334,-1.39432 -2.33334,-10.57141 z m 79.45899,-2.11098 c 0.069,-6.9748 0.5046,-13.06044 0.9678,-13.52362 0.4631,-0.4632 1.7008,-0.1296 2.7502,0.74141 1.5068,1.25049 1.6228,2.61713 0.5514,6.49715 -0.7461,2.70244 -0.985,8.07533 -0.5309,11.93973 0.7204,6.12899 0.5264,7.02624 -1.5191,7.02649 -2.0823,2.7e-4 -2.331,-1.42074 -2.2194,-12.68116 z m 88.7949,10.34754 c 0.2471,-1.28334 1.3329,-2.33334 2.4128,-2.33334 1.0799,0 2.1657,1.05 2.4128,2.33334 0.3153,1.63713 -0.4046,2.33333 -2.4128,2.33333 -2.0082,0 -2.7281,-0.6962 -2.4128,-2.33333 z m 79.3789,-0.003 c -5.7277,-6.32904 -5.7006,-15.32612 0.062,-20.57084 3.0954,-2.8172 3.3071,-2.85529 2.3714,-0.42672 -2.5643,6.65528 -2.4138,13.85728 0.3888,18.60732 3.0287,5.13336 1.1218,6.74839 -2.8222,2.39024 z m 50.5142,-10.66572 c 0.1336,-11.80495 0.3784,-12.99851 2.6667,-12.99851 1.5531,0 2.477,0.89507 2.4086,2.33334 -0.061,1.28333 -0.2112,7.13333 -0.3334,13 -0.1913,9.18581 -0.5461,10.66646 -2.5555,10.66517 -2.0726,-0.001 -2.3169,-1.45387 -2.1864,-13 z m 20.5197,2.63206 c 0,-7.2277 -0.6289,-11.26794 -2.0756,-13.33333 -1.667,-2.38003 -1.7172,-2.96335 -0.2548,-2.96335 4.7823,0 6.1783,3.17818 6.5904,15.00311 0.3618,10.38105 0.149,11.66944 -1.9267,11.66667 -2.0219,-0.003 -2.3333,-1.38699 -2.3333,-10.3731 z m 19.9796,0.0367 c -0.022,-10.99285 -0.4535,-12.36248 -4.6463,-14.74007 -2.4981,-1.4166 -2.4409,-1.51473 0.9048,-1.55272 5.9424,-0.0675 7.7619,3.0453 7.7619,13.27898 0,5.02097 0.3642,10.07812 0.8093,11.23809 0.5802,1.51193 0.014,2.10905 -2,2.10905 -2.6134,0 -2.8107,-0.72045 -2.8297,-10.33333 z m -69.889,4.32211 c 2.1878,-5.23607 1.5379,-9.81662 -2.2996,-16.20714 l -2.5331,-4.21837 2.8402,0.74271 c 3.5951,0.94016 7.8904,7.88064 7.8969,12.76024 0.01,4.7791 -3.4989,11.60045 -5.9612,11.60045 -1.6306,0 -1.6226,-0.65843 0.057,-4.67789 z M 328.72889,347.96631 c 0.44249,-1.15314 0.18557,-3.25314 -0.57094,-4.66667 -1.74356,-3.25787 0.27362,-3.34148 3.17838,-0.13173 3.11738,3.44466 2.8158,6.89501 -0.60267,6.89501 -2.00691,0 -2.57952,-0.59884 -2.00477,-2.09659 z m 97.79012,-2.23676 c -0.86414,-5.67394 0.012,-6.37654 3.13874,-2.51896 3.24676,4.00482 3.26196,6.85229 0.0365,6.85229 -1.81355,0 -2.69947,-1.20901 -3.17531,-4.33333 z m 101.33333,0 c -0.86413,-5.67394 0.012,-6.37654 3.13875,-2.51896 3.24676,4.00482 3.26196,6.85229 0.0365,6.85229 -1.81355,0 -2.69947,-1.20901 -3.17531,-4.33333 z m 46.77092,-0.33334 c -0.6134,-5.25413 0.17251,-5.77229 3.37973,-2.22834 2.98386,3.29712 2.81994,6.89501 -0.31413,6.89501 -1.88825,0 -2.65751,-1.17101 -3.0656,-4.66667 z m 101.22908,0.33334 c -0.86413,-5.67394 0.012,-6.37654 3.13875,-2.51896 3.24676,4.00482 3.26196,6.85229 0.0365,6.85229 -1.81355,0 -2.69947,-1.20901 -3.17531,-4.33333 z m 98.20988,2.23674 c 0.44249,-1.15313 0.18557,-3.25313 -0.57093,-4.66666 -2.01384,-3.7629 1.9679,-3.42563 4.64276,0.39326 3.01566,4.30547 2.5618,6.36999 -1.40039,6.36999 -2.61315,0 -3.27628,-0.52043 -2.67144,-2.09659 z m 265.79018,-2.23674 c -0.8642,-5.67394 0.012,-6.37654 3.1387,-2.51896 3.2468,4.00482 3.262,6.85229 0.037,6.85229 -1.8135,0 -2.6994,-1.20901 -3.1753,-4.33333 z m 89.4375,-0.33334 c -0.627,-5.37088 0.544,-5.93901 3.5108,-1.70332 2.7845,3.97534 2.6171,6.36999 -0.4452,6.36999 -1.8882,0 -2.6575,-1.17101 -3.0656,-4.66667 z m -258.41359,-2.50929 c 0,-1.1 0.6,-2.37081 1.33334,-2.82404 0.73333,-0.45323 1.33333,0.076 1.33333,1.17596 0,1.1 -0.6,2.37081 -1.33333,2.82404 -0.73334,0.45323 -1.33334,-0.076 -1.33334,-1.17596 z m -587.8,-0.75737 c 0.29334,-0.88 0.96834,-1.555 1.5,-1.5 1.59427,0.16492 1.28552,1.99372 -0.43333,2.56666 -0.88,0.29334 -1.36,-0.18666 -1.06667,-1.06666 z m 98.46667,-0.0667 c 0,-0.73333 0.93541,-1.33333 2.07869,-1.33333 1.14328,0 1.70787,0.6 1.25464,1.33333 -0.45322,0.73333 -1.38864,1.33333 -2.07869,1.33333 -0.69005,0 -1.25464,-0.6 -1.25464,-1.33333 z m 347.33333,0 c -0.45322,-0.73333 0.14678,-1.33333 1.33334,-1.33333 1.18656,0 1.78656,0.6 1.33333,1.33333 -0.45323,0.73333 -1.05323,1.33333 -1.33333,1.33333 -0.28011,0 -0.88011,-0.6 -1.33334,-1.33333 z m 90.54364,-1.46927 c -2.51564,-2.77976 -2.50928,-2.79878 0.77974,-2.33333 1.85176,0.26205 3.51242,1.49961 3.76077,2.8026 0.60111,3.15387 -1.4538,2.94149 -4.54051,-0.46927 z m 120.7897,1.46927 c 0,-0.73333 0.6,-1.33333 1.33333,-1.33333 0.73333,0 1.33333,0.6 1.33333,1.33333 0,0.73333 -0.6,1.33333 -1.33333,1.33333 -0.73333,0 -1.33333,-0.6 -1.33333,-1.33333 z m 145.30665,-0.69889 c -0.9277,-1.11772 -1.327,-2.39184 -0.8875,-2.83138 1.3654,-1.36541 4.9142,0.67232 4.9142,2.82176 0,2.61148 -1.8637,2.61594 -4.0267,0.009 z m 122.5657,-0.1216 c -1.5464,-1.86339 -1.4485,-2.08811 0.7263,-1.66667 1.3825,0.26792 2.7634,1.23712 3.0687,2.15379 0.7919,2.37852 -1.68,2.06122 -3.795,-0.48712 z"
       id="path827"
       inkscape:connector-curvature="0" />
  </g>
</svg>
